<svg xmlns="http://www.w3.org/2000/svg" version="1.1" xmlns:xlink="http://www.w3.org/1999/xlink" xmlns:svgjs="http://svgjs.dev/svgjs" viewBox="0 0 800 800" opacity="1"><defs><filter id="nnneon-filter" x="-100%" y="-100%" width="400%" height="400%" filterUnits="objectBoundingBox" primitiveUnits="userSpaceOnUse" color-interpolation-filters="sRGB">
	<feGaussianBlur stdDeviation="14 8" x="0%" y="0%" width="100%" height="100%" in="SourceGraphic" edgeMode="none" result="blur"></feGaussianBlur></filter><filter id="nnneon-filter2" x="-100%" y="-100%" width="400%" height="400%" filterUnits="objectBoundingBox" primitiveUnits="userSpaceOnUse" color-interpolation-filters="sRGB">
	<feGaussianBlur stdDeviation="11 0" x="0%" y="0%" width="100%" height="100%" in="SourceGraphic" edgeMode="none" result="blur"></feGaussianBlur></filter></defs><g stroke-width="11" stroke="hsl(180, 69%, 30%)" fill="none"><path d="M392.57143689445377 292.86004765702C397.1682317441658 290.20656491571884 402.8317682558342 290.20656491571884 407.42856310554623 292.8607905133305L489.0714430607415 339.99725198695296C493.6682379104535 342.6507347282541 496.50000616628773 347.5558149468463 496.50000616628773 352.8635232857591V447.13644623300405C496.50000616628773 452.44415457191684 493.6682379104535 457.34923479050906 489.0714430607415 460.00346038812063L407.42856310554623 507.1399218617431C402.8317682558342 509.7934046030443 397.1682317441658 509.7934046030443 392.57143689445377 507.13917900543265L310.9285569392585 460.00271753181016C306.3317620895465 457.34923479050906 303.49999383371227 452.44415457191684 303.49999383371227 447.13644623300405V352.8635232857591C303.49999383371227 347.5558149468463 306.3317620895465 342.6507347282541 310.9285569392585 339.99650913064244L392.57143689445377 292.86004765702Z " filter="url(#nnneon-filter)"></path><path d="M392.57143689445377 292.86004765702C397.1682317441658 290.20656491571884 402.8317682558342 290.20656491571884 407.42856310554623 292.8607905133305L489.0714430607415 339.99725198695296C493.6682379104535 342.6507347282541 496.50000616628773 347.5558149468463 496.50000616628773 352.8635232857591V447.13644623300405C496.50000616628773 452.44415457191684 493.6682379104535 457.34923479050906 489.0714430607415 460.00346038812063L407.42856310554623 507.1399218617431C402.8317682558342 509.7934046030443 397.1682317441658 509.7934046030443 392.57143689445377 507.13917900543265L310.9285569392585 460.00271753181016C306.3317620895465 457.34923479050906 303.49999383371227 452.44415457191684 303.49999383371227 447.13644623300405V352.8635232857591C303.49999383371227 347.5558149468463 306.3317620895465 342.6507347282541 310.9285569392585 339.99650913064244L392.57143689445377 292.86004765702Z " filter="url(#nnneon-filter2)" opacity="0.28"></path><path d="M392.57143689445377 292.86004765702C397.1682317441658 290.20656491571884 402.8317682558342 290.20656491571884 407.42856310554623 292.8607905133305L489.0714430607415 339.99725198695296C493.6682379104535 342.6507347282541 496.50000616628773 347.5558149468463 496.50000616628773 352.8635232857591V447.13644623300405C496.50000616628773 452.44415457191684 493.6682379104535 457.34923479050906 489.0714430607415 460.00346038812063L407.42856310554623 507.1399218617431C402.8317682558342 509.7934046030443 397.1682317441658 509.7934046030443 392.57143689445377 507.13917900543265L310.9285569392585 460.00271753181016C306.3317620895465 457.34923479050906 303.49999383371227 452.44415457191684 303.49999383371227 447.13644623300405V352.8635232857591C303.49999383371227 347.5558149468463 306.3317620895465 342.6507347282541 310.9285569392585 339.99650913064244L392.57143689445377 292.86004765702Z " filter="url(#nnneon-filter2)" opacity="0.28"></path><path d="M392.57143689445377 292.86004765702C397.1682317441658 290.20656491571884 402.8317682558342 290.20656491571884 407.42856310554623 292.8607905133305L489.0714430607415 339.99725198695296C493.6682379104535 342.6507347282541 496.50000616628773 347.5558149468463 496.50000616628773 352.8635232857591V447.13644623300405C496.50000616628773 452.44415457191684 493.6682379104535 457.34923479050906 489.0714430607415 460.00346038812063L407.42856310554623 507.1399218617431C402.8317682558342 509.7934046030443 397.1682317441658 509.7934046030443 392.57143689445377 507.13917900543265L310.9285569392585 460.00271753181016C306.3317620895465 457.34923479050906 303.49999383371227 452.44415457191684 303.49999383371227 447.13644623300405V352.8635232857591C303.49999383371227 347.5558149468463 306.3317620895465 342.6507347282541 310.9285569392585 339.99650913064244L392.57143689445377 292.86004765702Z "></path></g></svg>